<svg xmlns="http://www.w3.org/2000/svg" xmlns:xlink="http://www.w3.org/1999/xlink" width="124" zoomAndPan="magnify" viewBox="0 0 93 30.000001" height="40" preserveAspectRatio="xMidYMid meet" version="1.0"><defs><clipPath id="53e7522987"><path d="M 1.5 0 L 91.5 0 L 91.5 29.03125 L 1.5 29.03125 Z M 1.5 0 " clip-rule="nonzero"/></clipPath><clipPath id="23b5d1db58"><path d="M 81 9 L 91.5 9 L 91.5 19 L 81 19 Z M 81 9 " clip-rule="nonzero"/></clipPath></defs><g clip-path="url(#53e7522987)"><path fill="#ffffff" d="M 1.5 0 L 91.5 0 L 91.5 29.03125 L 1.5 29.03125 Z M 1.5 0 " fill-opacity="1" fill-rule="nonzero"/><path fill="#ffffff" d="M 1.5 0 L 91.5 0 L 91.5 29.03125 L 1.5 29.03125 Z M 1.5 0 " fill-opacity="1" fill-rule="nonzero"/></g><path fill="#000000" d="M 20.820312 7.816406 C 19.382812 7.160156 17.863281 6.679688 16.273438 6.410156 C 16.074219 6.75 15.851562 7.21875 15.699219 7.59375 C 14.003906 7.347656 12.332031 7.347656 10.660156 7.59375 C 10.507812 7.230469 10.273438 6.761719 10.085938 6.410156 C 8.484375 6.679688 6.964844 7.160156 5.535156 7.816406 C 2.660156 12.070312 1.875 16.230469 2.261719 20.332031 C 4.179688 21.726562 6.015625 22.570312 7.828125 23.132812 C 8.273438 22.535156 8.671875 21.890625 9.023438 21.210938 C 8.367188 20.964844 7.746094 20.660156 7.140625 20.308594 C 7.289062 20.191406 7.453125 20.074219 7.59375 19.957031 C 11.21875 21.621094 15.148438 21.621094 18.726562 19.957031 C 18.878906 20.074219 19.03125 20.203125 19.183594 20.308594 C 18.585938 20.660156 17.957031 20.964844 17.300781 21.210938 C 17.640625 21.890625 18.050781 22.535156 18.496094 23.132812 C 20.308594 22.570312 22.167969 21.726562 24.0625 20.332031 C 24.539062 15.585938 23.3125 11.460938 20.820312 7.816406 Z M 9.523438 17.800781 C 8.4375 17.800781 7.546875 16.804688 7.546875 15.597656 C 7.546875 14.390625 8.414062 13.394531 9.523438 13.394531 C 10.625 13.394531 11.523438 14.390625 11.5 15.597656 C 11.5 16.816406 10.625 17.800781 9.523438 17.800781 Z M 16.820312 17.800781 C 15.734375 17.800781 14.84375 16.804688 14.84375 15.597656 C 14.84375 14.390625 15.710938 13.394531 16.820312 13.394531 C 17.921875 13.394531 18.820312 14.390625 18.796875 15.597656 C 18.808594 16.816406 17.945312 17.800781 16.820312 17.800781 Z M 16.820312 17.800781 " fill-opacity="1" fill-rule="nonzero"/><path fill="#000000" d="M 31.769531 9.914062 L 36.492188 9.914062 C 37.625 9.914062 38.597656 10.089844 39.382812 10.453125 C 40.164062 10.804688 40.761719 11.296875 41.148438 11.929688 C 41.53125 12.5625 41.730469 13.289062 41.730469 14.109375 C 41.730469 14.90625 41.53125 15.632812 41.125 16.289062 C 40.714844 16.933594 40.09375 17.460938 39.253906 17.835938 C 38.421875 18.210938 37.382812 18.398438 36.152344 18.398438 L 31.757812 18.398438 L 31.757812 9.914062 Z M 36.105469 16.253906 C 36.878906 16.253906 37.464844 16.066406 37.871094 15.679688 C 38.28125 15.304688 38.492188 14.765625 38.492188 14.109375 C 38.492188 13.5 38.304688 13.007812 37.929688 12.644531 C 37.570312 12.28125 37.007812 12.082031 36.257812 12.082031 L 34.785156 12.082031 L 34.785156 16.253906 Z M 36.105469 16.253906 " fill-opacity="1" fill-rule="nonzero"/><path fill="#000000" d="M 49.109375 18.410156 C 48.457031 18.246094 47.871094 18 47.34375 17.660156 L 47.34375 15.644531 C 47.742188 15.960938 48.269531 16.207031 48.9375 16.40625 C 49.601562 16.605469 50.246094 16.710938 50.867188 16.710938 C 51.15625 16.710938 51.378906 16.675781 51.519531 16.59375 C 51.660156 16.511719 51.742188 16.429688 51.742188 16.3125 C 51.742188 16.195312 51.695312 16.089844 51.625 16.007812 C 51.542969 15.925781 51.390625 15.867188 51.15625 15.796875 L 49.695312 15.46875 C 48.867188 15.28125 48.269531 15 47.917969 14.671875 C 47.566406 14.332031 47.390625 13.886719 47.390625 13.324219 C 47.390625 12.855469 47.542969 12.445312 47.847656 12.09375 C 48.164062 11.753906 48.597656 11.484375 49.15625 11.296875 C 49.71875 11.109375 50.386719 11.003906 51.144531 11.003906 C 51.824219 11.003906 52.445312 11.074219 53.015625 11.226562 C 53.578125 11.367188 54.046875 11.566406 54.421875 11.789062 L 54.421875 13.699219 C 54.046875 13.476562 53.601562 13.300781 53.109375 13.160156 C 52.609375 13.03125 52.09375 12.960938 51.578125 12.960938 C 50.820312 12.960938 50.445312 13.089844 50.445312 13.347656 C 50.445312 13.464844 50.503906 13.558594 50.621094 13.628906 C 50.738281 13.699219 50.957031 13.746094 51.261719 13.816406 L 52.480469 14.039062 C 53.273438 14.167969 53.859375 14.414062 54.246094 14.765625 C 54.632812 15.105469 54.816406 15.609375 54.816406 16.289062 C 54.816406 17.027344 54.492188 17.613281 53.847656 18.035156 C 53.203125 18.46875 52.292969 18.679688 51.109375 18.679688 C 50.433594 18.667969 49.765625 18.574219 49.109375 18.410156 Z M 49.109375 18.410156 " fill-opacity="1" fill-rule="nonzero"/><path fill="#000000" d="M 57.824219 18.152344 C 57.132812 17.8125 56.597656 17.355469 56.257812 16.769531 C 55.90625 16.195312 55.730469 15.527344 55.730469 14.800781 C 55.730469 14.074219 55.90625 13.417969 56.28125 12.855469 C 56.644531 12.28125 57.179688 11.835938 57.882812 11.496094 C 58.582031 11.167969 59.425781 11.003906 60.410156 11.003906 C 61.625 11.003906 62.617188 11.261719 63.425781 11.777344 L 63.425781 13.992188 C 63.144531 13.804688 62.816406 13.640625 62.429688 13.523438 C 62.058594 13.40625 61.648438 13.347656 61.226562 13.347656 C 60.464844 13.347656 59.894531 13.476562 59.460938 13.757812 C 59.039062 14.039062 58.828125 14.390625 58.828125 14.835938 C 58.828125 15.269531 59.027344 15.632812 59.449219 15.902344 C 59.859375 16.183594 60.464844 16.324219 61.238281 16.324219 C 61.636719 16.324219 62.035156 16.265625 62.429688 16.148438 C 62.828125 16.03125 63.167969 15.890625 63.449219 15.714844 L 63.449219 17.859375 C 62.558594 18.398438 61.53125 18.65625 60.363281 18.65625 C 59.355469 18.667969 58.527344 18.480469 57.824219 18.152344 Z M 57.824219 18.152344 " fill-opacity="1" fill-rule="nonzero"/><path fill="#000000" d="M 66.582031 18.152344 C 65.882812 17.8125 65.34375 17.355469 64.980469 16.757812 C 64.617188 16.171875 64.417969 15.515625 64.417969 14.777344 C 64.417969 14.050781 64.605469 13.394531 64.980469 12.832031 C 65.34375 12.269531 65.882812 11.8125 66.570312 11.496094 C 67.261719 11.167969 68.089844 11.003906 69.050781 11.003906 C 70.007812 11.003906 70.839844 11.15625 71.53125 11.496094 C 72.21875 11.824219 72.757812 12.269531 73.121094 12.832031 C 73.484375 13.394531 73.671875 14.050781 73.671875 14.777344 C 73.671875 15.503906 73.496094 16.171875 73.121094 16.757812 C 72.757812 17.34375 72.230469 17.8125 71.53125 18.152344 C 70.828125 18.492188 70.007812 18.667969 69.050781 18.667969 C 68.113281 18.667969 67.285156 18.480469 66.582031 18.152344 Z M 70.265625 15.996094 C 70.558594 15.703125 70.710938 15.304688 70.710938 14.824219 C 70.710938 14.332031 70.570312 13.957031 70.265625 13.664062 C 69.964844 13.371094 69.566406 13.230469 69.0625 13.230469 C 68.535156 13.230469 68.136719 13.371094 67.835938 13.664062 C 67.542969 13.957031 67.390625 14.332031 67.390625 14.824219 C 67.390625 15.316406 67.53125 15.703125 67.835938 15.996094 C 68.136719 16.300781 68.535156 16.441406 69.0625 16.441406 C 69.566406 16.429688 69.976562 16.289062 70.265625 15.996094 Z M 70.265625 15.996094 " fill-opacity="1" fill-rule="nonzero"/><path fill="#000000" d="M 81.109375 11.4375 L 81.109375 14.050781 C 80.792969 13.851562 80.394531 13.746094 79.902344 13.746094 C 79.261719 13.746094 78.757812 13.945312 78.417969 14.332031 C 78.066406 14.71875 77.890625 15.339844 77.890625 16.160156 L 77.890625 18.386719 L 74.921875 18.386719 L 74.921875 11.296875 L 77.832031 11.296875 L 77.832031 13.558594 C 77.984375 12.738281 78.253906 12.117188 78.617188 11.730469 C 78.96875 11.34375 79.4375 11.132812 80.007812 11.132812 C 80.429688 11.15625 80.804688 11.25 81.109375 11.4375 Z M 81.109375 11.4375 " fill-opacity="1" fill-rule="nonzero"/><g clip-path="url(#23b5d1db58)"><path fill="#000000" d="M 91.117188 9.667969 L 91.117188 18.410156 L 88.148438 18.410156 L 88.148438 16.816406 C 87.890625 17.414062 87.515625 17.871094 87.003906 18.1875 C 86.488281 18.503906 85.855469 18.65625 85.097656 18.65625 C 84.429688 18.65625 83.84375 18.492188 83.339844 18.164062 C 82.839844 17.835938 82.453125 17.378906 82.183594 16.816406 C 81.914062 16.242188 81.785156 15.585938 81.785156 14.882812 C 81.773438 14.132812 81.914062 13.464844 82.21875 12.878906 C 82.511719 12.292969 82.933594 11.835938 83.457031 11.496094 C 83.996094 11.15625 84.605469 10.992188 85.292969 10.992188 C 86.710938 10.992188 87.65625 11.601562 88.148438 12.84375 L 88.148438 9.667969 Z M 87.703125 15.949219 C 88.007812 15.65625 88.160156 15.269531 88.160156 14.800781 C 88.160156 14.34375 88.019531 13.980469 87.714844 13.699219 C 87.410156 13.417969 87.015625 13.277344 86.511719 13.277344 C 86.007812 13.277344 85.609375 13.417969 85.304688 13.710938 C 85.003906 14.003906 84.863281 14.367188 84.863281 14.835938 C 84.863281 15.304688 85.003906 15.667969 85.304688 15.960938 C 85.609375 16.253906 85.996094 16.394531 86.5 16.394531 C 87.003906 16.394531 87.398438 16.242188 87.703125 15.949219 Z M 87.703125 15.949219 " fill-opacity="1" fill-rule="nonzero"/></g><path fill="#000000" d="M 44.480469 11.742188 C 45.332031 11.742188 46.023438 11.121094 46.023438 10.347656 C 46.023438 9.574219 45.332031 8.953125 44.480469 8.953125 C 43.625 8.953125 42.9375 9.574219 42.9375 10.347656 C 42.9375 11.121094 43.625 11.742188 44.480469 11.742188 Z M 44.480469 11.742188 " fill-opacity="1" fill-rule="nonzero"/><path fill="#000000" d="M 46.023438 12.703125 C 45.078125 13.113281 43.894531 13.125 42.9375 12.703125 L 42.9375 18.421875 L 46.023438 18.421875 Z M 46.023438 12.703125 " fill-opacity="1" fill-rule="nonzero"/></svg>