<?xml version="1.0" encoding="utf-8"?>
<!-- Generator: Adobe Illustrator 25.4.1, SVG Export Plug-In . SVG Version: 6.00 Build 0)  -->
<svg version="1.0" id="katman_1" xmlns="http://www.w3.org/2000/svg" xmlns:xlink="http://www.w3.org/1999/xlink" x="0px" y="0px"
	 viewBox="0 0 1024 768" style="enable-background:new 0 0 1024 768;" xml:space="preserve">
<g>
	<path d="M291.9,325c-12.3-5.6-25.3-9.7-38.9-12c-1.7,2.9-3.6,6.9-4.9,10.1c-14.5-2.1-28.8-2.1-43.1,0c-1.3-3.1-3.3-7.1-4.9-10.1
		c-13.7,2.3-26.7,6.4-38.9,12c-24.6,36.3-31.3,71.8-28,106.8c16.4,11.9,32.1,19.1,47.6,23.9c3.8-5.1,7.2-10.6,10.2-16.4
		c-5.6-2.1-10.9-4.7-16.1-7.7c1.3-1,2.7-2,3.9-3c31,14.2,64.6,14.2,95.2,0c1.3,1,2.6,2.1,3.9,3c-5.1,3-10.5,5.6-16.1,7.7
		c2.9,5.8,6.4,11.3,10.2,16.4c15.5-4.8,31.4-12,47.6-23.9C323.7,391.3,313.2,356.1,291.9,325z M195.3,410.2
		c-9.3,0-16.9-8.5-16.9-18.8s7.4-18.8,16.9-18.8c9.4,0,17.1,8.5,16.9,18.8C212.2,401.8,204.7,410.2,195.3,410.2z M257.7,410.2
		c-9.3,0-16.9-8.5-16.9-18.8s7.4-18.8,16.9-18.8c9.4,0,17.1,8.5,16.9,18.8C274.7,401.8,267.3,410.2,257.7,410.2z"/>
	<path d="M385.5,342.9h40.4c9.7,0,18,1.5,24.7,4.6c6.7,3,11.8,7.2,15.1,12.6c3.3,5.4,5,11.6,5,18.6c0,6.8-1.7,13-5.2,18.6
		c-3.5,5.5-8.8,10-16,13.2c-7.1,3.2-16,4.8-26.5,4.8h-37.6V342.9z M422.6,397c6.6,0,11.6-1.6,15.1-4.9c3.5-3.2,5.3-7.8,5.3-13.4
		c0-5.2-1.6-9.4-4.8-12.5c-3.1-3.1-7.9-4.8-14.3-4.8h-12.6V397H422.6z"/>
	<path d="M533.8,415.4c-5.6-1.4-10.6-3.5-15.1-6.4v-17.2c3.4,2.7,7.9,4.8,13.6,6.5c5.7,1.7,11.2,2.6,16.5,2.6c2.5,0,4.4-0.3,5.6-1
		c1.2-0.7,1.9-1.4,1.9-2.4c0-1-0.4-1.9-1-2.6c-0.7-0.7-2-1.2-4-1.8l-12.5-2.8c-7.1-1.6-12.2-4-15.2-6.8c-3-2.9-4.5-6.7-4.5-11.5
		c0-4,1.3-7.5,3.9-10.5c2.7-2.9,6.4-5.2,11.2-6.8c4.8-1.6,10.5-2.5,17-2.5c5.8,0,11.1,0.6,16,1.9c4.8,1.2,8.8,2.9,12,4.8v16.3
		c-3.2-1.9-7-3.4-11.2-4.6c-4.3-1.1-8.7-1.7-13.1-1.7c-6.5,0-9.7,1.1-9.7,3.3c0,1,0.5,1.8,1.5,2.4c1,0.6,2.9,1,5.5,1.6l10.4,1.9
		c6.8,1.1,11.8,3.2,15.1,6.2c3.3,2.9,4.9,7.2,4.9,13c0,6.3-2.8,11.3-8.3,14.9c-5.5,3.7-13.3,5.5-23.4,5.5
		C545.1,417.6,539.4,416.8,533.8,415.4z"/>
	<path d="M608.3,413.2c-5.9-2.9-10.5-6.8-13.4-11.8c-3-4.9-4.5-10.6-4.5-16.8c0-6.2,1.5-11.8,4.7-16.6c3.1-4.9,7.7-8.7,13.7-11.6
		c6-2.8,13.2-4.2,21.6-4.2c10.4,0,18.9,2.2,25.8,6.6v18.9c-2.4-1.6-5.2-3-8.5-4c-3.2-1-6.7-1.5-10.3-1.5c-6.5,0-11.4,1.1-15.1,3.5
		c-3.6,2.4-5.4,5.4-5.4,9.2c0,3.7,1.7,6.8,5.3,9.1c3.5,2.4,8.7,3.6,15.3,3.6c3.4,0,6.8-0.5,10.2-1.5s6.3-2.2,8.7-3.7v18.3
		c-7.6,4.6-16.4,6.8-26.4,6.8C621.4,417.6,614.3,416,608.3,413.2z"/>
	<path d="M683.2,413.2c-6-2.9-10.6-6.8-13.7-11.9c-3.1-5-4.8-10.6-4.8-16.9c0-6.2,1.6-11.8,4.8-16.6c3.1-4.8,7.7-8.7,13.6-11.4
		c5.9-2.8,13-4.2,21.2-4.2c8.2,0,15.3,1.3,21.2,4.2c5.9,2.8,10.5,6.6,13.6,11.4c3.1,4.8,4.7,10.4,4.7,16.6c0,6.2-1.5,11.9-4.7,16.9
		c-3.1,5-7.6,9-13.6,11.9c-6,2.9-13,4.4-21.2,4.4C696.3,417.6,689.2,416,683.2,413.2z M714.7,394.8c2.5-2.5,3.8-5.9,3.8-10
		c0-4.2-1.2-7.4-3.8-9.9c-2.6-2.5-6-3.7-10.3-3.7c-4.5,0-7.9,1.2-10.5,3.7c-2.5,2.5-3.8,5.7-3.8,9.9c0,4.2,1.2,7.5,3.8,10
		c2.6,2.6,6,3.8,10.5,3.8C708.7,398.5,712.2,397.3,714.7,394.8z"/>
	<path d="M807.4,355.9v22.3c-2.7-1.7-6.1-2.6-10.3-2.6c-5.5,0-9.8,1.7-12.7,5c-3,3.3-4.5,8.6-4.5,15.6v19h-25.4v-60.5h24.9v19.3
		c1.3-7,3.6-12.3,6.7-15.6c3-3.3,7-5.1,11.9-5.1C801.6,353.5,804.8,354.3,807.4,355.9z"/>
	<path d="M893,340.8v74.6h-25.4v-13.6c-2.2,5.1-5.4,9-9.8,11.7c-4.4,2.7-9.8,4-16.3,4c-5.7,0-10.7-1.4-15-4.2
		c-4.3-2.8-7.6-6.7-9.9-11.5c-2.3-4.9-3.4-10.5-3.4-16.5c-0.1-6.4,1.1-12.1,3.7-17.1c2.5-5,6.1-8.9,10.6-11.8
		c4.6-2.9,9.8-4.3,15.7-4.3c12.1,0,20.2,5.2,24.4,15.8v-27.1H893z M863.8,394.4c2.6-2.5,3.9-5.8,3.9-9.8c0-3.9-1.2-7-3.8-9.4
		c-2.6-2.4-6-3.6-10.3-3.6c-4.3,0-7.7,1.2-10.3,3.7c-2.6,2.5-3.8,5.6-3.8,9.6c0,4,1.2,7.1,3.8,9.6c2.6,2.5,5.9,3.7,10.2,3.7
		C857.8,398.2,861.2,396.9,863.8,394.4z"/>
	<path d="M494.2,358.5c7.3,0,13.2-5.3,13.2-11.9c0-6.6-5.9-11.9-13.2-11.9c-7.3,0-13.2,5.3-13.2,11.9
		C481,353.2,486.9,358.5,494.2,358.5z"/>
	<path d="M507.4,366.7c-8.1,3.5-18.2,3.6-26.4,0v48.8h26.4V366.7z"/>
</g>
</svg>
